<svg xmlns="http://www.w3.org/2000/svg" width="24" height="24" fill="none" viewBox="0 0 24 24" id="contact"><path fill="#5E94FF" d="M2 1.25C1.58579 1.25 1.25 1.58579 1.25 2V22C1.25 22.4142 1.58579 22.75 2 22.75H16C16.4142 22.75 16.75 22.4142 16.75 22V2C16.75 1.58579 16.4142 1.25 16 1.25H2Z"></path><path fill="#ECEFF1" d="M9 6.25C7.48122 6.25 6.25 7.48122 6.25 9 6.25 10.5188 7.48122 11.75 9 11.75 10.5188 11.75 11.75 10.5188 11.75 9 11.75 7.48122 10.5188 6.25 9 6.25zM9 12.25C6.37665 12.25 4.25 14.3766 4.25 17 4.25 17.4142 4.58579 17.75 5 17.75H13C13.4142 17.75 13.75 17.4142 13.75 17 13.75 14.3766 11.6234 12.25 9 12.25z"></path><path fill="#CFD8DC" d="M18.5 1.25C18.0858 1.25 17.75 1.58579 17.75 2V7C17.75 7.41421 18.0858 7.75 18.5 7.75H20C21.2426 7.75 22.25 6.74264 22.25 5.5V3.5C22.25 2.25736 21.2426 1.25 20 1.25H18.5zM18.5 8.75C18.0858 8.75 17.75 9.08579 17.75 9.5V14.5C17.75 14.9142 18.0858 15.25 18.5 15.25H20C21.2426 15.25 22.25 14.2426 22.25 13V11C22.25 9.75736 21.2426 8.75 20 8.75H18.5zM18.5 16.25C18.0858 16.25 17.75 16.5858 17.75 17V22C17.75 22.4142 18.0858 22.75 18.5 22.75H20C21.2426 22.75 22.25 21.7426 22.25 20.5V18.5C22.25 17.2574 21.2426 16.25 20 16.25H18.5z"></path></svg>